<svg width="40" height="41" viewBox="0 0 40 41" fill="none" xmlns="http://www.w3.org/2000/svg">
<path d="M37.9661 15.9534H35.7657L35.0448 13.4628C34.8622 12.8346 34.4535 12.2938 33.8954 11.9423C33.3373 11.5907 32.6684 11.4526 32.0143 11.5539L22.1454 13.0923C21.8288 13.1415 21.5274 13.2603 21.2636 13.4399C20.9997 13.6195 20.7802 13.8554 20.6211 14.1301C20.462 14.4048 20.3675 14.7113 20.3446 15.0269C20.3216 15.3425 20.3708 15.6591 20.4885 15.9534H18.9831C18.8492 15.9534 18.7183 15.9925 18.607 16.0658L16.7439 17.292H15.5932V18.6305H16.7439L18.607 19.8566C18.7183 19.9299 18.8492 19.9691 18.9831 19.9691H22.092L23.7402 21.5961C23.7924 22.2719 24.036 22.9197 24.4433 23.4654C24.8505 24.0112 25.405 24.4329 26.0434 24.6825L27.1187 25.1072V30.5199L25.8343 33.0556C25.7876 33.1486 25.7635 33.2511 25.764 33.355H25.7627V40.717H27.1187V34.0238H35.9322V40.7165H37.2882V33.3545H37.2869C37.2873 33.2507 37.2633 33.1482 37.2165 33.0552L35.9322 30.5195V19.9691H37.9661C38.5055 19.9691 39.0229 19.7575 39.4043 19.381C39.7857 19.0044 40 18.4937 40 17.9612C40 17.4287 39.7857 16.918 39.4043 16.5415C39.0229 16.1649 38.5055 15.9534 37.9661 15.9534ZM21.6949 15.1791C21.6942 14.9945 21.7606 14.8157 21.8821 14.6754C22.0036 14.535 22.1721 14.4424 22.357 14.4143L32.2258 12.876C32.5528 12.8253 32.8874 12.8943 33.1664 13.0701C33.4455 13.2459 33.6499 13.5163 33.741 13.8305L34.3554 15.9534H30.7893L31.6659 15.0881L30.707 14.1416L28.8718 15.9534H22.4792C22.2713 15.9532 22.0719 15.8715 21.9249 15.7264C21.7779 15.5812 21.6952 15.3844 21.6949 15.1791ZM18.1714 17.9612L19.1883 17.292H21.1587C20.9916 17.7199 20.9717 18.1903 21.102 18.6305H19.1883L18.1714 17.9612ZM27.5376 32.6853L28.2156 31.3467H34.8353L35.5132 32.6853H27.5376ZM34.5763 30.0082H28.4746V24.654C28.4746 24.5202 28.434 24.3895 28.358 24.2787C28.2821 24.168 28.1742 24.0822 28.0484 24.0325L26.547 23.4397C26.1145 23.2706 25.7436 22.9766 25.4828 22.5963C25.222 22.216 25.0832 21.7669 25.0848 21.3076C25.0848 21.2197 25.0672 21.1327 25.0332 21.0515C24.9991 20.9703 24.9492 20.8965 24.8862 20.8343L22.5956 18.5731C22.4893 18.4682 22.4168 18.3344 22.3875 18.1889C22.3581 18.0433 22.3732 17.8924 22.4307 17.7552C22.4883 17.6181 22.5857 17.5009 22.7107 17.4184C22.8358 17.3359 22.9828 17.2919 23.1331 17.292H23.3893C23.5073 17.2921 23.6237 17.3192 23.7292 17.3712L28.7509 19.8498L30.707 21.7809L31.6659 20.8343L30.7893 19.9691H34.5763V30.0082ZM29.3126 18.6305L26.6008 17.292H35.9322V18.6305H29.3126ZM37.9661 18.6305H37.2882V17.292H37.9661C38.1459 17.292 38.3184 17.3625 38.4455 17.488C38.5727 17.6135 38.6441 17.7837 38.6441 17.9612C38.6441 18.1387 38.5727 18.309 38.4455 18.4345C38.3184 18.56 38.1459 18.6305 37.9661 18.6305Z" fill="#F5961B"/>
<path d="M0 3.90658V38.0396C0 38.2171 0.0714283 38.3873 0.198572 38.5128C0.325715 38.6383 0.498158 38.7088 0.677966 38.7088H24.4068V37.3703H1.35593V4.57585H31.8644V9.93005H33.2203V3.90658C33.2203 3.72908 33.1489 3.55884 33.0218 3.43333C32.8946 3.30782 32.7222 3.2373 32.5424 3.2373H0.677966C0.498158 3.2373 0.325715 3.30782 0.198572 3.43333C0.0714283 3.55884 0 3.72908 0 3.90658Z" fill="#F5961B"/>
<path d="M13.5219 13.3425C15.5016 12.9835 17.5447 13.2129 19.392 14.0017L19.93 12.7731C17.8017 11.8652 15.4455 11.6122 13.1693 12.0471C10.8931 12.482 8.80266 13.5846 7.17122 15.2108C5.53977 16.837 4.44316 18.9112 4.02469 21.1623C3.60622 23.4135 3.88534 25.7369 4.82559 27.829C5.76584 29.9211 7.32348 31.6845 9.29498 32.8889C11.2665 34.0933 13.5602 34.6826 15.8763 34.5798C18.1924 34.4771 20.4233 33.687 22.2774 32.3129C24.1315 30.9388 25.5226 29.0445 26.269 26.8776L24.9846 26.4481C24.4469 28.0081 23.5285 29.4135 22.3105 30.5403C21.0925 31.6671 19.6123 32.4807 18.0005 32.9092L23.0113 27.9626L22.0525 27.0161L15.7432 33.2449C15.1336 33.2678 14.5231 33.237 13.9191 33.1528L18.3824 28.7468L17.4237 27.8006L12.3513 32.808C11.8787 32.6647 11.4175 32.4875 10.9713 32.2776L15.4478 27.8577L14.489 26.9114L9.74575 31.5943C9.36506 31.3455 9.00183 31.0716 8.65855 30.7744L12.5135 26.9689L11.5546 26.0224L7.69948 29.8281C7.39826 29.4895 7.12038 29.1313 6.8677 28.7559L11.274 24.4069L10.3153 23.4603L6.17312 27.5483C5.95985 27.1084 5.77976 26.6536 5.63431 26.1875L10.0339 21.844L9.07507 20.8975L5.28507 24.6393C5.21784 24.1686 5.18409 23.6938 5.18406 23.2184C5.18406 23.0914 5.18719 22.9649 5.19194 22.8387L9.47261 18.6129L8.5138 17.6664L5.52863 20.6133C6.02955 18.7799 7.04613 17.1241 8.46072 15.8373C9.8753 14.5506 11.6301 13.6857 13.5219 13.3425Z" fill="#F5961B"/>
<path d="M21.3548 10.432C22.3671 10.432 22.8183 9.54127 23.1478 8.89082C23.3191 8.55267 23.5536 8.08953 23.7279 8.08953C23.9021 8.08953 24.1368 8.55267 24.3081 8.89082C24.6376 9.54127 25.0889 10.432 26.1012 10.432C27.1135 10.432 27.5648 9.54127 27.8942 8.89082C28.0656 8.55267 28.3002 8.08953 28.4746 8.08953V6.75098C27.4623 6.75098 27.0109 7.6417 26.6815 8.29215C26.5102 8.6303 26.2756 9.09344 26.1012 9.09344C25.9268 9.09344 25.6922 8.6303 25.5208 8.29207C25.1914 7.6417 24.7402 6.75098 23.7279 6.75098C22.7156 6.75098 22.2645 7.6417 21.935 8.29215C21.7637 8.6303 21.5292 9.09344 21.3548 9.09344C21.1805 9.09344 20.9461 8.6303 20.7748 8.29215C20.4453 7.64178 19.9942 6.75098 18.9819 6.75098C17.9696 6.75098 17.5185 7.6417 17.1891 8.29215C17.0178 8.6303 16.7832 9.09344 16.609 9.09344C16.4347 9.09344 16.2003 8.6303 16.029 8.29215C15.6995 7.64178 15.2483 6.75098 14.236 6.75098C13.2237 6.75098 12.7728 7.6417 12.4434 8.29215C12.2721 8.6303 12.0375 9.09344 11.8634 9.09344C11.6892 9.09344 11.4547 8.6303 11.2836 8.29223C10.9541 7.64178 10.503 6.75098 9.49084 6.75098C8.47864 6.75098 8.02771 7.64178 7.69839 8.29223C7.52712 8.6303 7.29262 9.09344 7.11864 9.09344C6.94466 9.09344 6.71 8.6303 6.53864 8.29223C6.20923 7.64178 5.75796 6.75098 4.74576 6.75098V8.08953C4.92 8.08953 5.15449 8.55267 5.32584 8.89082C5.65517 9.54127 6.10644 10.432 7.11864 10.432C8.13084 10.432 8.58195 9.54119 8.91127 8.89073C9.08245 8.55258 9.31695 8.08953 9.49093 8.08953C9.66491 8.08953 9.89957 8.55267 10.0708 8.89073C10.4003 9.54119 10.8514 10.432 11.8635 10.432C12.8756 10.432 13.3269 9.54119 13.6563 8.89073C13.8275 8.55258 14.062 8.08953 14.2361 8.08953C14.4102 8.08953 14.645 8.55267 14.8163 8.89082C15.1458 9.54127 15.5969 10.432 16.6091 10.432C17.6213 10.432 18.0725 9.54127 18.4019 8.89082C18.5732 8.55267 18.8078 8.08953 18.9819 8.08953C19.1561 8.08953 19.3908 8.55267 19.5621 8.89082C19.8915 9.54127 20.3426 10.432 21.3548 10.432Z" fill="#F5961B"/>
<path d="M24.4068 0.560547H5.42373V1.89908H24.4068V0.560547Z" fill="#F5961B"/>
<path d="M27.1187 0.560547H25.7627V1.89908H27.1187V0.560547Z" fill="#F5961B"/>
</svg>
