<svg width="40" height="41" viewBox="0 0 40 41" fill="none" xmlns="http://www.w3.org/2000/svg">
<path d="M31.3333 3.23736C31.3342 3.08123 31.28 2.92983 31.1803 2.81C31.0806 2.69018 30.9419 2.60969 30.7887 2.5828L20.122 0.571592C20.0409 0.556865 19.9578 0.556865 19.8767 0.571592L9.21 2.58347C9.05699 2.61024 8.9184 2.69066 8.81891 2.8104C8.71941 2.93014 8.66546 3.08143 8.66667 3.23736V5.24522H0V33.3553H12V34.8143L2.55667 36.7111C1.45933 36.8944 0 37.371 0 39.3788V40.0481C2.84281e-05 40.1453 0.0211539 40.2414 0.0619067 40.3296C0.102659 40.4178 0.162061 40.496 0.23598 40.5588C0.309898 40.6216 0.396559 40.6675 0.489934 40.6933C0.583308 40.719 0.681155 40.7241 0.776667 40.708L12.722 38.7095H27.278L39.2233 40.708C39.2596 40.7145 39.2965 40.7176 39.3333 40.7174C39.5101 40.7174 39.6797 40.6469 39.8047 40.5214C39.9298 40.3959 40 40.2256 40 40.0481V39.3788C40 37.377 38.55 36.8971 37.454 36.7124L28 34.8143V33.3553H40V5.24522H31.3333V3.23736ZM20 1.91083L27.5453 3.33106L20 5.22447L12.4547 3.33106L20 1.91083ZM30 4.09472V14.8207L20.6667 18.3345V6.43722L30 4.09472ZM10 4.09472L19.3333 6.43722V18.3345L10 14.8207V4.09472ZM9.09933 15.9116L19.766 19.9274C19.8425 19.9486 19.9209 19.9627 20 19.9695C20.0791 19.9627 20.1575 19.9486 20.234 19.9274L30.9007 15.9116C31.0278 15.8638 31.1374 15.7781 31.2147 15.666C31.292 15.5539 31.3334 15.4208 31.3333 15.2845V9.26094H36V29.3395H4V9.26094H8.66667V15.2845C8.66658 15.4208 8.70797 15.5539 8.78529 15.666C8.86261 15.7781 8.97218 15.8638 9.09933 15.9116ZM37.2 38.0269L37.2207 38.0309C38.38 38.225 38.6367 38.5864 38.662 39.2577L27.4407 37.3837C27.4053 37.3763 27.3694 37.372 27.3333 37.371H12.6667C12.6298 37.3708 12.593 37.3739 12.5567 37.3803L1.33333 39.2577C1.35867 38.5884 1.616 38.225 2.79533 38.0269L12.7333 36.0324H27.2667L37.2 38.0269ZM13.3333 34.6938V33.3553H26.6667V34.6938H13.3333ZM38.6667 6.58379V32.0167H1.33333V6.58379H8.66667V7.92237H2.66667V30.6781H37.3333V7.92237H31.3333V6.58379H38.6667Z" fill="#67AA82"/>
<path d="M9.62598 21.4234C9.53582 21.4847 9.462 21.5673 9.41098 21.6639C9.35996 21.7605 9.33329 21.8682 9.33331 21.9775V25.9933C9.33321 26.127 9.37304 26.2578 9.44767 26.3686C9.5223 26.4794 9.62829 26.5653 9.75198 26.615L13.0853 27.9536C13.1663 27.9774 13.2493 27.9933 13.3333 28.0011C13.4173 27.9933 13.5003 27.9774 13.5813 27.9536L16.9146 26.615C17.0383 26.5653 17.1443 26.4794 17.219 26.3686C17.2936 26.2578 17.3334 26.127 17.3333 25.9933V21.9775C17.3333 21.8682 17.3067 21.7605 17.2556 21.6639C17.2046 21.5673 17.1308 21.4847 17.0406 21.4234C17 21.3986 16.9579 21.3763 16.9146 21.3564L13.5813 20.0179C13.4219 19.955 13.2447 19.955 13.0853 20.0179L9.75198 21.3564C9.70878 21.3764 9.66672 21.3987 9.62598 21.4234ZM16 25.5402L14 26.3433V23.7692L16 22.9661V25.5402ZM13.3333 21.3598L14.8713 21.9775L13.3333 22.5953L11.7953 21.9775L13.3333 21.3598ZM10.6666 22.9661L12.6666 23.7692V26.3433L10.6666 25.5402V22.9661Z" fill="#67AA82"/>
<path d="M25.0353 23.9185L27.702 25.2571C27.7945 25.3035 27.8965 25.3277 28 25.3277C28.1034 25.3277 28.2054 25.3035 28.298 25.2571L30.9646 23.9185C31.076 23.8627 31.1695 23.7767 31.2347 23.6702C31.2998 23.5638 31.334 23.4411 31.3333 23.3162V20.639C31.3334 20.5249 31.3044 20.4127 31.2491 20.313C31.1937 20.2133 31.114 20.1295 31.0173 20.0695C31 20.0588 30.9646 20.04 30.9646 20.04L28.298 18.7014C28.2054 18.655 28.1034 18.6309 28 18.6309C27.8965 18.6309 27.7945 18.655 27.702 18.7014L25.0353 20.04C25.0353 20.04 25 20.0588 24.9826 20.0695C24.886 20.1295 24.8062 20.2133 24.7509 20.313C24.6956 20.4127 24.6666 20.5249 24.6666 20.639V23.3162C24.666 23.4411 24.7001 23.5638 24.7653 23.6702C24.8304 23.7767 24.924 23.8627 25.0353 23.9185ZM30 22.9026L28.6666 23.5718V22.3912L30 21.7219V22.9026ZM28 20.0487L29.176 20.639L28 21.2293L26.824 20.639L28 20.0487ZM26 21.7219L27.3333 22.3912V23.5718L26 22.9026V21.7219Z" fill="#67AA82"/>
<path d="M33.3334 26.6622H30.6667V28.0008H34.6667V22.6465H33.3334V26.6622Z" fill="#67AA82"/>
<path d="M34 17.0759V13.2764H32.6667V16.1697L29.752 17.3396L30.248 18.5831L34 17.0759Z" fill="#67AA82"/>
<path d="M7.33334 10.5996H6V17.0642L11.0707 19.2461L11.596 18.016L7.33334 16.1821V10.5996Z" fill="#67AA82"/>
<path d="M19.3333 21.9775H20.6666V23.3161H19.3333V21.9775Z" fill="#67AA82"/>
<path d="M6.66669 25.9932H8V27.3317H6.66669V25.9932Z" fill="#67AA82"/>
<path d="M21.3333 24.6543H22.6666V25.9929H21.3333V24.6543Z" fill="#67AA82"/>
</svg>
