<svg width="40" height="41" viewBox="0 0 40 41" fill="none" xmlns="http://www.w3.org/2000/svg">
<path d="M29.678 10.4385C27.4578 10.4385 25.6517 12.281 25.6517 14.5457C25.6517 16.8104 27.4578 18.653 29.678 18.653C31.8981 18.653 33.7043 16.8105 33.7043 14.5457C33.7043 12.2809 31.8982 10.4385 29.678 10.4385ZM29.678 17.0591C28.3194 17.0591 27.2142 15.9316 27.2142 14.5457C27.2142 13.1598 28.3194 12.0324 29.678 12.0324C31.0365 12.0324 32.1418 13.1598 32.1418 14.5457C32.1418 15.9315 31.0366 17.0591 29.678 17.0591Z" fill="#383A45"/>
<path d="M29.7055 35.9491C29.6859 35.9005 29.6617 35.8543 29.6336 35.8113C29.6055 35.7674 29.5727 35.7268 29.5367 35.6901C29.5008 35.6535 29.4609 35.62 29.418 35.5913C29.3758 35.5626 29.3305 35.5379 29.2828 35.518C29.2359 35.4981 29.1867 35.4821 29.1367 35.4726C29.0359 35.4519 28.9328 35.4519 28.832 35.4726C28.782 35.4821 28.7328 35.4981 28.6859 35.518C28.6383 35.5379 28.593 35.5626 28.5508 35.5913C28.5078 35.62 28.468 35.6535 28.432 35.6901C28.3961 35.7268 28.3633 35.7674 28.3352 35.8113C28.307 35.8543 28.2828 35.9005 28.2633 35.9491C28.2437 35.997 28.2281 36.0472 28.2188 36.0982C28.2086 36.1492 28.2031 36.2018 28.2031 36.2536C28.2031 36.3054 28.2086 36.358 28.2188 36.409C28.2281 36.46 28.2437 36.5102 28.2633 36.558C28.2828 36.6066 28.307 36.6529 28.3352 36.6959C28.3633 36.7397 28.3961 36.7804 28.432 36.817C28.4499 36.8353 28.4688 36.8527 28.4885 36.8692C28.5084 36.8858 28.5292 36.9015 28.5508 36.9159C28.593 36.9445 28.6383 36.9692 28.6859 36.9892C28.7328 37.0091 28.782 37.025 28.832 37.0346C28.882 37.045 28.9336 37.0505 28.9844 37.0505C29.0352 37.0505 29.0867 37.045 29.1367 37.0346C29.1867 37.025 29.2359 37.0091 29.2828 36.9892C29.3305 36.9692 29.3758 36.9445 29.418 36.9159C29.4395 36.9014 29.4603 36.8858 29.4802 36.8692C29.5 36.8527 29.5188 36.8353 29.5367 36.817C29.5727 36.7804 29.6055 36.7397 29.6336 36.6959C29.6617 36.6529 29.6859 36.6066 29.7055 36.558C29.725 36.5102 29.7406 36.46 29.7508 36.409C29.7609 36.358 29.7656 36.3054 29.7656 36.2536C29.7656 36.2018 29.7609 36.1492 29.7508 36.0982C29.7406 36.0471 29.725 35.9969 29.7055 35.9491Z" fill="#383A45"/>
<path d="M17.4102 4.41106C17.3907 4.36325 17.3664 4.31702 17.3383 4.27319C17.3102 4.23015 17.2774 4.18871 17.2414 4.15205C17.2055 4.11539 17.1657 4.08192 17.1227 4.05323C17.0805 4.02454 17.0352 3.99984 16.9875 3.97991C16.9407 3.95999 16.8914 3.94485 16.8414 3.93449C16.7407 3.91377 16.6375 3.91377 16.5367 3.93449C16.4867 3.94485 16.4375 3.95999 16.3899 3.97991C16.343 3.99984 16.2977 4.02454 16.2555 4.05323C16.2125 4.08192 16.1727 4.11539 16.1367 4.15205C16.1008 4.18871 16.068 4.23015 16.0391 4.27319C16.011 4.31702 15.9875 4.36325 15.968 4.41106C15.9485 4.45888 15.9328 4.50909 15.9235 4.56009C15.9133 4.61189 15.9078 4.6637 15.9078 4.71629C15.9078 4.7681 15.9133 4.8199 15.9235 4.8717C15.9328 4.9227 15.9485 4.97291 15.968 5.02073C15.9875 5.06855 16.011 5.11477 16.0391 5.1586C16.068 5.20164 16.1008 5.24308 16.1367 5.27974C16.1727 5.3164 16.2125 5.34987 16.2555 5.37856C16.2977 5.40725 16.343 5.43196 16.3899 5.45188C16.4375 5.4718 16.4867 5.48695 16.5367 5.49731C16.5867 5.50767 16.6383 5.51325 16.6891 5.51325C16.7399 5.51325 16.7914 5.50767 16.8414 5.49731C16.8914 5.48695 16.9407 5.4718 16.9875 5.45188C17.0352 5.43196 17.0805 5.40725 17.1227 5.37856C17.1657 5.34987 17.2055 5.3164 17.2414 5.27974C17.2774 5.24308 17.3102 5.20164 17.3383 5.1586C17.3664 5.11477 17.3907 5.06855 17.4102 5.02073C17.4297 4.97291 17.4453 4.9227 17.4547 4.8717C17.4649 4.8199 17.4703 4.7681 17.4703 4.71629C17.4703 4.6637 17.4649 4.61189 17.4547 4.56009C17.4453 4.50909 17.4297 4.45888 17.4102 4.41106Z" fill="#383A45"/>
<path d="M35.635 3.92295C35.1666 1.90276 33.385 0.394531 31.2634 0.394531H6.75133C3.02867 0.394452 0 3.48399 0 7.28146V32.2862C0 34.7696 1.94664 36.7965 4.365 36.8661C4.83344 38.8863 6.615 40.3945 8.73656 40.3945H35.507C37.9845 40.3945 40 38.3385 40 35.8113V29.7976V8.50279C40 6.01949 38.0534 3.99253 35.635 3.92295ZM38.4375 35.8114C38.4375 37.4598 37.1229 38.8008 35.507 38.8008H8.73656C7.48578 38.8008 6.41609 37.9971 5.99633 36.8695C5.87375 36.5404 5.80609 36.1839 5.80609 35.8114V35.2756V31.5834L14.769 16.0808C15.0419 15.6089 15.5285 15.3333 16.0624 15.3421C16.5995 15.3515 17.0735 15.6443 17.3304 16.1255L21.1895 23.354L26.7989 33.8613C26.9406 34.1268 27.2088 34.2772 27.4857 34.2772C27.612 34.2772 27.74 34.2459 27.8587 34.18C28.2376 33.9694 28.3775 33.4854 28.1712 33.0989L26.3509 29.6892C27.1501 29.7268 27.9362 29.4628 28.5622 28.933L32.0755 25.9599C32.639 25.4831 33.4709 25.5041 34.0106 26.0088L34.1941 26.1803L35.7566 27.6413L38.4375 30.1483V35.8114ZM38.4375 27.986L35.7565 25.479L34.194 24.2653C33.1759 23.8309 31.9655 23.982 31.0779 24.7331L27.5645 27.7062C27.1781 28.0333 26.6736 28.1654 26.1805 28.0687C25.6873 27.9721 25.2668 27.6586 25.0266 27.2088L22.5616 22.5916L21.1852 20.0134V20.0133L18.7027 15.3631C18.1731 14.3713 17.1961 13.7676 16.0891 13.7483C14.9825 13.7306 13.9855 14.2983 13.4231 15.2711L5.80602 28.4458V8.50279C5.80602 6.85446 7.12063 5.51343 8.73648 5.51343H13.564C13.9955 5.51343 14.3452 5.15663 14.3452 4.71648C14.3452 4.27632 13.9955 3.91953 13.564 3.91953H8.73648C6.25906 3.91953 4.24352 5.97558 4.24352 8.50279V31.3659V35.2639C2.74406 35.1343 1.5625 33.8488 1.5625 32.2862V7.28146C1.5625 4.36279 3.89023 1.98835 6.75133 1.98835H31.2634C32.5142 1.98835 33.5839 2.79208 34.0037 3.9196H19.814C19.3825 3.9196 19.0327 4.2764 19.0327 4.71656C19.0327 5.15671 19.3825 5.51351 19.814 5.51351H34.1939L35.7564 5.52514C37.2559 5.65473 38.4375 6.94021 38.4375 8.50279V27.986Z" fill="#383A45"/>
</svg>
